<?xml version="1.0" encoding="UTF-8"?>
<svg id="Layer_2" data-name="Layer 2" xmlns="http://www.w3.org/2000/svg" viewBox="0 0 288 288">
  <defs>
    <style>
      .cls-1 {
        fill: #bc1241;
      }

      .cls-1, .cls-2, .cls-3 {
        stroke-width: 0px;
      }

      .cls-2 {
        fill: #fff;
      }

      .cls-3 {
        fill: #231f20;
      }
    </style>
  </defs>
  <g id="Layer_1-2" data-name="Layer 1">
    <g>
      <rect class="cls-2" width="288" height="288"/>
      <g>
        <g>
          <g>
            <rect class="cls-1" x="112.33" y="33.32" width="13" height="83" rx="6.5" ry="6.5"/>
            <rect class="cls-1" x="161.33" y="33.32" width="13" height="83" rx="6.5" ry="6.5"/>
            <rect class="cls-1" x="128.66" y="1.32" width="13" height="115" rx="6.5" ry="6.5"/>
            <rect class="cls-1" x="144.99" y="1.32" width="13" height="115" rx="6.5" ry="6.5"/>
          </g>
          <g>
            <rect class="cls-1" x="161.33" y="171.04" width="13" height="83" rx="6.5" ry="6.5"/>
            <rect class="cls-1" x="112.33" y="171.04" width="13" height="83" rx="6.5" ry="6.5"/>
            <rect class="cls-1" x="144.99" y="171.04" width="13" height="115" rx="6.5" ry="6.5"/>
            <rect class="cls-1" x="128.66" y="171.04" width="13" height="115" rx="6.5" ry="6.5"/>
          </g>
        </g>
        <g>
          <g>
            <rect class="cls-1" x="32.97" y="161.68" width="83" height="13" rx="6.5" ry="6.5"/>
            <rect class="cls-1" x="32.97" y="112.68" width="83" height="13" rx="6.5" ry="6.5"/>
            <rect class="cls-1" x=".97" y="145.35" width="115" height="13" rx="6.5" ry="6.5"/>
            <rect class="cls-1" x=".97" y="129.01" width="115" height="13" rx="6.5" ry="6.5"/>
          </g>
          <g>
            <rect class="cls-1" x="170.68" y="112.68" width="83" height="13" rx="6.5" ry="6.5"/>
            <rect class="cls-1" x="170.68" y="161.68" width="83" height="13" rx="6.5" ry="6.5"/>
            <rect class="cls-1" x="170.68" y="129.01" width="115" height="13" rx="6.5" ry="6.5"/>
            <rect class="cls-1" x="170.68" y="145.35" width="115" height="13" rx="6.5" ry="6.5"/>
          </g>
        </g>
      </g>
      <path class="cls-2" d="m223.3,109.21c-15.09-28.18-50.15-47.69-82.54-45.39-13.98,1.12-27.58,6.16-39.32,13.39-3.43,2.09-7.86,5.03-11.22,7.18-11.19,7.22-22.17,14.68-32.57,23.06-5.39,4.42-17.89,16.79-19.11,18.41-.61.8-.41,1.93.43,2.49.45.3.81.54.81.54,15.03,8.28,29.04,18.7,42.85,28.7,6.84,5.09,45.98,46.5,52.41,52.71,12.86,9.98,30.36,12.79,46.31,10.25,18.85-2.84,34.27-16.68,41.4-33.67,9.73-22.2,11.43-55.69.54-77.68Z"/>
      <path class="cls-3" d="m223.5,109.12c-15.12-28.87-50.27-48.86-82.73-46.5-14.02,1.14-27.64,6.31-39.42,13.72-3.43,2.14-7.88,5.15-11.25,7.35-11.22,7.4-22.22,15.04-32.64,23.63-5.4,4.53-17.93,17.2-19.16,18.86-.61.82-.41,1.98.43,2.55.45.3.82.56.82.56,15.06,8.48,29.11,19.16,42.95,29.4,6.85,5.22,46.09,47.64,52.54,54,12.89,10.23,30.44,13.1,46.42,10.5,18.9-2.91,34.35-17.08,41.49-34.49,9.75-22.74,11.46-57.05.55-79.57Zm-21.01,95.44c-8.41,7.37-19.32,11.88-30.48,12.45-13.23.68-26.66-4.19-36.4-13.2-4.21-3.89-7.73-8.49-10.96-13.24-1.3-1.91-2.57-3.89-3.27-6.09-.8-2.54-.81-5.26-.65-7.92.38-6.33,1.67-12.61,3.8-18.58,3.32-9.31,8.99-18.12,17.4-23.27s19.84-5.97,27.95-.36c8.12,5.61,11.18,18.16,5.15,25.99-2.48,3.23-6.14,5.39-9.98,6.71-3.13,1.07-6.59,1.61-9.74.59s-5.84-3.93-5.81-7.25c.02-1.94.5-4.63-1.36-5.17-3.27,5.09-2.14,12.56,2.51,16.43,3.79,3.16,9.11,3.81,14.02,3.29,5.69-.6,11.29-2.63,15.72-6.26,10.07-8.26,12.05-24.32,5.36-35.51-6.7-11.19-20.71-17-33.59-15.19-12.89,1.81-24.29,10.53-30.76,21.86s-8.29,24.96-6.55,37.89c-9.7-14.13-22.85-25.48-37.08-34.83-7.21-4.74-14.72-9-22.38-12.98-2.44-1.27-8.57-4.17-8.57-4.17,0,0,5.34-5.37,6.76-6.33,5.42-3.67,9.88-8.53,15-12.57,18.31-14.42,39.42-29.18,62.4-34.54,17.95-4.19,37.42-1.74,53.65,7.02,16.24,8.75,29.06,23.77,34.96,41.29,4.65,13.82,5.03,28.84,2.72,43.24-2.11,13.17-6.61,26.33-15.43,36.32-1.37,1.55-2.84,3.02-4.4,4.38Z"/>
    </g>
  </g>
</svg>